<mxfile host="app.diagrams.net" modified="2023-12-23T15:56:40.872Z" agent="Mozilla/5.0 (Windows NT 10.0; Win64; x64) AppleWebKit/537.36 (KHTML, like Gecko) Chrome/120.0.0.0 Safari/537.36" etag="W8aT6NBAjkG3D7BikFLc" version="22.1.11" type="device">
  <diagram name="Page-1" id="_bZPcYFoVLMulygTzIVQ">
    <mxGraphModel dx="1069" dy="810" grid="1" gridSize="10" guides="1" tooltips="1" connect="1" arrows="1" fold="1" page="1" pageScale="1" pageWidth="827" pageHeight="1169" math="0" shadow="0">
      <root>
        <mxCell id="0" />
        <mxCell id="1" parent="0" />
        <mxCell id="yRUXcdPz_VsaYOSXyMIE-51" value="" style="group" vertex="1" connectable="0" parent="1">
          <mxGeometry x="41" y="470" width="746" height="140" as="geometry" />
        </mxCell>
        <mxCell id="yRUXcdPz_VsaYOSXyMIE-12" value="" style="group;fontFamily=Segoe UI;" vertex="1" connectable="0" parent="yRUXcdPz_VsaYOSXyMIE-51">
          <mxGeometry y="80" width="746" height="60" as="geometry" />
        </mxCell>
        <mxCell id="yRUXcdPz_VsaYOSXyMIE-1" value="&lt;font&gt;Inverse Model&lt;/font&gt;" style="rounded=1;whiteSpace=wrap;html=1;fontSize=16;rotation=0;fontFamily=Segoe UI;" vertex="1" parent="yRUXcdPz_VsaYOSXyMIE-12">
          <mxGeometry x="146" width="160" height="60" as="geometry" />
        </mxCell>
        <mxCell id="yRUXcdPz_VsaYOSXyMIE-2" value="&lt;font&gt;Controlled Object&lt;/font&gt;" style="rounded=1;whiteSpace=wrap;html=1;fontSize=16;rotation=0;fontFamily=Segoe UI;" vertex="1" parent="yRUXcdPz_VsaYOSXyMIE-12">
          <mxGeometry x="452" width="160" height="60" as="geometry" />
        </mxCell>
        <mxCell id="yRUXcdPz_VsaYOSXyMIE-8" value="&lt;p style=&quot;line-height: 130%;&quot;&gt;Feedforward &lt;br&gt;motor command&lt;br&gt;&lt;/p&gt;" style="html=1;verticalAlign=bottom;endArrow=block;curved=0;rounded=0;fontSize=12;startSize=8;endSize=8;exitX=1;exitY=0.5;exitDx=0;exitDy=0;entryX=0;entryY=0.5;entryDx=0;entryDy=0;fontFamily=Segoe UI;" edge="1" parent="yRUXcdPz_VsaYOSXyMIE-12" source="yRUXcdPz_VsaYOSXyMIE-1" target="yRUXcdPz_VsaYOSXyMIE-2">
          <mxGeometry x="-0.0411" width="80" relative="1" as="geometry">
            <mxPoint x="326" y="29.5" as="sourcePoint" />
            <mxPoint x="406" y="29.5" as="targetPoint" />
            <mxPoint as="offset" />
          </mxGeometry>
        </mxCell>
        <mxCell id="yRUXcdPz_VsaYOSXyMIE-9" value="&lt;p style=&quot;line-height: 130%;&quot;&gt;Realized trajecory&lt;br&gt;&lt;/p&gt;" style="html=1;verticalAlign=bottom;endArrow=block;curved=0;rounded=0;fontSize=12;startSize=8;endSize=8;exitX=1;exitY=0.5;exitDx=0;exitDy=0;fontFamily=Segoe UI;" edge="1" parent="yRUXcdPz_VsaYOSXyMIE-12" source="yRUXcdPz_VsaYOSXyMIE-2">
          <mxGeometry x="-0.0448" width="80" relative="1" as="geometry">
            <mxPoint x="659" y="30" as="sourcePoint" />
            <mxPoint x="746" y="30" as="targetPoint" />
            <mxPoint as="offset" />
          </mxGeometry>
        </mxCell>
        <mxCell id="yRUXcdPz_VsaYOSXyMIE-11" value="&lt;p style=&quot;line-height: 130%;&quot;&gt;Desired trajectory&lt;/p&gt;" style="html=1;verticalAlign=bottom;endArrow=block;curved=0;rounded=0;fontSize=12;startSize=8;endSize=8;exitX=1;exitY=0.5;exitDx=0;exitDy=0;entryX=0;entryY=0.5;entryDx=0;entryDy=0;fontFamily=Segoe UI;" edge="1" parent="yRUXcdPz_VsaYOSXyMIE-12" target="yRUXcdPz_VsaYOSXyMIE-1">
          <mxGeometry x="-0.0411" width="80" relative="1" as="geometry">
            <mxPoint y="29.5" as="sourcePoint" />
            <mxPoint x="99" y="30" as="targetPoint" />
            <mxPoint as="offset" />
          </mxGeometry>
        </mxCell>
        <mxCell id="yRUXcdPz_VsaYOSXyMIE-50" value="&lt;span style=&quot;color: rgb(0, 0, 0); font-family: &amp;quot;Segoe UI&amp;quot;; font-size: 16px; font-style: normal; font-variant-ligatures: normal; font-variant-caps: normal; font-weight: 700; letter-spacing: normal; orphans: 2; text-align: left; text-indent: 0px; text-transform: none; widows: 2; word-spacing: 0px; -webkit-text-stroke-width: 0px; text-decoration-thickness: initial; text-decoration-style: initial; text-decoration-color: initial; float: none; display: inline !important;&quot;&gt;Inverse Dynamics Model&lt;/span&gt;" style="text;whiteSpace=wrap;html=1;fontSize=16;" vertex="1" parent="yRUXcdPz_VsaYOSXyMIE-51">
          <mxGeometry width="220" height="40" as="geometry" />
        </mxCell>
        <mxCell id="yRUXcdPz_VsaYOSXyMIE-52" value="" style="group" vertex="1" connectable="0" parent="1">
          <mxGeometry x="41" y="190" width="746" height="140" as="geometry" />
        </mxCell>
        <mxCell id="yRUXcdPz_VsaYOSXyMIE-21" value="" style="group;fontFamily=Segoe UI;" vertex="1" connectable="0" parent="yRUXcdPz_VsaYOSXyMIE-52">
          <mxGeometry y="70" width="746" height="70" as="geometry" />
        </mxCell>
        <mxCell id="yRUXcdPz_VsaYOSXyMIE-28" value="" style="ellipse;whiteSpace=wrap;html=1;aspect=fixed;fontSize=16;fontFamily=Segoe UI;" vertex="1" parent="yRUXcdPz_VsaYOSXyMIE-21">
          <mxGeometry x="146" y="25" width="10" height="10" as="geometry" />
        </mxCell>
        <mxCell id="yRUXcdPz_VsaYOSXyMIE-23" value="&lt;font&gt;Controlled Object&lt;/font&gt;" style="rounded=1;whiteSpace=wrap;html=1;fontSize=16;rotation=0;fontFamily=Segoe UI;" vertex="1" parent="yRUXcdPz_VsaYOSXyMIE-21">
          <mxGeometry x="452" width="160" height="60" as="geometry" />
        </mxCell>
        <mxCell id="yRUXcdPz_VsaYOSXyMIE-24" value="&lt;p style=&quot;line-height: 130%;&quot;&gt;Feedforward &lt;br&gt;motor command&lt;br&gt;&lt;/p&gt;" style="html=1;verticalAlign=bottom;endArrow=block;curved=0;rounded=0;fontSize=12;startSize=8;endSize=8;exitX=1;exitY=0.5;exitDx=0;exitDy=0;entryX=0;entryY=0.5;entryDx=0;entryDy=0;fontFamily=Segoe UI;" edge="1" parent="yRUXcdPz_VsaYOSXyMIE-21" source="yRUXcdPz_VsaYOSXyMIE-27" target="yRUXcdPz_VsaYOSXyMIE-23">
          <mxGeometry x="-0.0411" width="80" relative="1" as="geometry">
            <mxPoint x="306" y="30" as="sourcePoint" />
            <mxPoint x="406" y="29.5" as="targetPoint" />
            <mxPoint as="offset" />
          </mxGeometry>
        </mxCell>
        <mxCell id="yRUXcdPz_VsaYOSXyMIE-25" value="&lt;p style=&quot;line-height: 130%;&quot;&gt;Realized trajecory&lt;br&gt;&lt;/p&gt;" style="html=1;verticalAlign=bottom;endArrow=block;curved=0;rounded=0;fontSize=12;startSize=8;endSize=8;exitX=1;exitY=0.5;exitDx=0;exitDy=0;fontFamily=Segoe UI;" edge="1" parent="yRUXcdPz_VsaYOSXyMIE-21" source="yRUXcdPz_VsaYOSXyMIE-38">
          <mxGeometry x="-1" y="-5" width="80" relative="1" as="geometry">
            <mxPoint x="659" y="30" as="sourcePoint" />
            <mxPoint x="746" y="30" as="targetPoint" />
            <mxPoint x="-5" y="-5" as="offset" />
          </mxGeometry>
        </mxCell>
        <mxCell id="yRUXcdPz_VsaYOSXyMIE-26" value="&lt;p style=&quot;line-height: 130%;&quot;&gt;Desired trajectory&lt;/p&gt;" style="html=1;verticalAlign=bottom;endArrow=block;curved=0;rounded=0;fontSize=12;startSize=8;endSize=8;exitX=1;exitY=0.5;exitDx=0;exitDy=0;entryX=0;entryY=0.5;entryDx=0;entryDy=0;fontFamily=Segoe UI;" edge="1" parent="yRUXcdPz_VsaYOSXyMIE-21" target="yRUXcdPz_VsaYOSXyMIE-28">
          <mxGeometry x="-0.0411" width="80" relative="1" as="geometry">
            <mxPoint y="29.5" as="sourcePoint" />
            <mxPoint x="146" y="30" as="targetPoint" />
            <mxPoint as="offset" />
          </mxGeometry>
        </mxCell>
        <mxCell id="yRUXcdPz_VsaYOSXyMIE-27" value="Gain" style="ellipse;whiteSpace=wrap;html=1;fontSize=16;fontFamily=Segoe UI;" vertex="1" parent="yRUXcdPz_VsaYOSXyMIE-21">
          <mxGeometry x="200" y="-10" width="120" height="80" as="geometry" />
        </mxCell>
        <mxCell id="yRUXcdPz_VsaYOSXyMIE-29" value="&lt;p style=&quot;line-height: 130%;&quot;&gt;&lt;br&gt;&lt;/p&gt;" style="html=1;verticalAlign=bottom;endArrow=block;curved=0;rounded=0;fontSize=12;startSize=8;endSize=8;exitX=1;exitY=0.5;exitDx=0;exitDy=0;entryX=0;entryY=0.5;entryDx=0;entryDy=0;fontFamily=Segoe UI;" edge="1" parent="yRUXcdPz_VsaYOSXyMIE-21" source="yRUXcdPz_VsaYOSXyMIE-28" target="yRUXcdPz_VsaYOSXyMIE-27">
          <mxGeometry x="-0.0411" width="80" relative="1" as="geometry">
            <mxPoint x="163" y="29.689999999999998" as="sourcePoint" />
            <mxPoint x="190" y="30" as="targetPoint" />
            <mxPoint as="offset" />
          </mxGeometry>
        </mxCell>
        <mxCell id="yRUXcdPz_VsaYOSXyMIE-38" value="" style="ellipse;whiteSpace=wrap;html=1;aspect=fixed;fontSize=16;fontFamily=Segoe UI;fillColor=#000000;" vertex="1" parent="yRUXcdPz_VsaYOSXyMIE-21">
          <mxGeometry x="679" y="25" width="10" height="10" as="geometry" />
        </mxCell>
        <mxCell id="yRUXcdPz_VsaYOSXyMIE-39" value="" style="html=1;verticalAlign=bottom;endArrow=none;curved=0;rounded=0;fontSize=12;startSize=8;endSize=8;exitX=1;exitY=0.5;exitDx=0;exitDy=0;fontFamily=Segoe UI;endFill=0;" edge="1" parent="yRUXcdPz_VsaYOSXyMIE-21" source="yRUXcdPz_VsaYOSXyMIE-23" target="yRUXcdPz_VsaYOSXyMIE-38">
          <mxGeometry x="-0.0448" width="80" relative="1" as="geometry">
            <mxPoint x="653" y="310" as="sourcePoint" />
            <mxPoint x="787" y="310" as="targetPoint" />
            <mxPoint as="offset" />
          </mxGeometry>
        </mxCell>
        <mxCell id="yRUXcdPz_VsaYOSXyMIE-46" value="" style="edgeStyle=orthogonalEdgeStyle;orthogonalLoop=1;jettySize=auto;html=1;rounded=0;fontSize=12;startSize=8;endSize=8;entryX=0.5;entryY=1;entryDx=0;entryDy=0;exitX=0.5;exitY=1;exitDx=0;exitDy=0;fontFamily=Segoe UI;" edge="1" parent="yRUXcdPz_VsaYOSXyMIE-21" source="yRUXcdPz_VsaYOSXyMIE-38" target="yRUXcdPz_VsaYOSXyMIE-28">
          <mxGeometry width="120" relative="1" as="geometry">
            <mxPoint x="529" y="40" as="sourcePoint" />
            <mxPoint x="409" y="40" as="targetPoint" />
            <Array as="points">
              <mxPoint x="684" y="120" />
              <mxPoint x="151" y="120" />
            </Array>
          </mxGeometry>
        </mxCell>
        <mxCell id="yRUXcdPz_VsaYOSXyMIE-48" value="Feedback Control Model" style="text;strokeColor=none;align=left;fillColor=none;html=1;verticalAlign=middle;whiteSpace=wrap;rounded=0;fontSize=16;fontFamily=Segoe UI;fontStyle=1" vertex="1" parent="yRUXcdPz_VsaYOSXyMIE-52">
          <mxGeometry width="199" height="30" as="geometry" />
        </mxCell>
      </root>
    </mxGraphModel>
  </diagram>
</mxfile>
